<svg width="20" height="18" fill="none" xmlns="http://www.w3.org/2000/svg"><path d="M7.6 15.8a1.8 1.8 0 1 1-3.6 0 1.8 1.8 0 0 1 3.6 0ZM16 15.8a1.8 1.8 0 1 1-3.6 0 1.8 1.8 0 0 1 3.6 0Z" fill="#6B7280"/><path d="M1.6.8A1.2 1.2 0 0 0 .4 2v12a1.2 1.2 0 0 0 1.2 1.2h1.26a3.001 3.001 0 0 1 5.88 0H10a1.2 1.2 0 0 0 1.2-1.2V2A1.2 1.2 0 0 0 10 .8H1.6ZM14.8 4.4a1.2 1.2 0 0 0-1.2 1.2v7.26a3.001 3.001 0 0 1 3.54 2.34h1.26a1.2 1.2 0 0 0 1.2-1.2V8a1.2 1.2 0 0 0-.351-.848l-2.4-2.4A1.2 1.2 0 0 0 16 4.4h-1.2Z" fill="#6B7280"/></svg>